<?xml version="1.0" encoding="utf-8"?>
<!-- Generator: Adobe Illustrator 16.0.4, SVG Export Plug-In . SVG Version: 6.00 Build 0)  -->
<!DOCTYPE svg PUBLIC "-//W3C//DTD SVG 1.1//EN" "http://www.w3.org/Graphics/SVG/1.1/DTD/svg11.dtd">
<svg version="1.1" id="レイヤー_1" xmlns="http://www.w3.org/2000/svg" xmlns:xlink="http://www.w3.org/1999/xlink" x="0px"
	 y="0px" width="512px" height="512px" viewBox="0 0 512 512" enable-background="new 0 0 512 512" xml:space="preserve">
	<path d="M475,37.2v438H37v-438H475z M326.6,251.3c-10.7,10.1-16.1,23.1-16.5,38.9c0,16.5,4.5,29.5,13.4,38.9
		c8.9,9.4,21,17.1,36.1,22.9l10.3,4.6c9.3,3.8,16.6,7.6,21.9,11.3c5.3,3.8,8,9.1,8,16c0,5.8-2.5,10.6-7.5,14.4
		c-5,3.8-11.8,5.7-20.4,5.7c-10,0-18.2-2.3-24.7-7c-6.5-4.6-11.9-10.6-16-17.8l-33.5,19.1c5.8,12.4,15,22.4,27.6,30.1
		c12.5,7.7,28.3,11.8,47.1,12.1c19.9,0,36.2-4.9,48.9-14.7c12.7-9.8,19.2-24,19.6-42.5c0-16.8-4.7-30.1-14.2-39.7
		c-9.4-9.6-22.9-18-40.4-25.2l-10.3-4.1c-8.9-3.8-15.5-7.4-19.6-10.8c-4.1-3.4-6-8.2-5.7-14.4c0-5.2,1.7-9.4,5.2-12.6
		c3.4-3.3,8.2-4.9,14.2-4.9s11.1,1.4,15.2,4.1c4.1,2.7,7.9,7.2,11.3,13.4l31.9-20.6c-6.5-11.7-14.6-20.1-24.2-25.2
		c-9.6-5.2-21-7.7-34-7.7C351.8,235.9,337.2,241.1,326.6,251.3z M234.4,378.3c-0.3,10-2.4,16.7-6.2,20.4c-3.8,3.6-9.1,5.3-16,5.2
		c-6.9-0.2-12.3-2.2-16.2-6.2c-4-3.9-7.3-8.8-10-14.7l-34,20.1c4.8,10.6,12.3,19.5,22.4,26.5c10.1,7,23.3,10.7,39.4,11.1
		c18.5,0,33.4-5.1,44.6-15.2c11.2-10.1,16.9-25.7,17.3-46.6V238.1h-41.2V378.3z"/>
</svg>
